<svg xmlns="http://www.w3.org/2000/svg" width="512" height="512" viewBox="0 0 512 512" version="1.1"><path d="" stroke="none" fill="#080404" fill-rule="evenodd"/><path d="M 235 6.592 C 196.285 11.057, 172.993 17.526, 143.500 32.006 C 92.416 57.085, 51.878 97.169, 26.694 147.500 C 8.860 183.142, 1.313 213.927, 0.282 255.243 C -0.460 284.957, 2.017 306.489, 9.106 331.951 C 25.245 389.923, 64.348 443.240, 115.399 476.887 C 134.945 489.770, 170.953 506.021, 179.869 505.985 C 184.693 505.966, 187.953 504.194, 190.720 500.088 C 192.948 496.781, 193 496.111, 193 470.736 L 193 444.767 190.250 445.429 C 188.738 445.794, 180.525 446.346, 172 446.657 C 145.678 447.616, 129.507 443.267, 117.631 432.035 C 112.391 427.079, 111.255 425.169, 102.148 406 C 96.383 393.865, 88.894 384.570, 80.155 378.703 C 72.440 373.524, 66.862 366.738, 68.760 364.840 C 70.573 363.027, 78.220 362.111, 83.500 363.073 C 89.970 364.253, 101.235 369.944, 107.196 375.045 C 109.778 377.254, 114.903 383.557, 118.583 389.051 C 129.486 405.324, 139.972 413.423, 153.330 415.886 C 163.752 417.809, 188.638 413.874, 192.614 409.676 C 193.227 409.029, 194.230 405.884, 194.843 402.686 C 196.278 395.207, 201.231 384.857, 205.791 379.810 C 210.079 375.063, 209.566 374.497, 200.104 373.521 C 170.419 370.458, 141.169 357.766, 123.690 340.361 C 109.185 325.917, 99.532 304.416, 94.797 276 C 94.099 271.812, 93.574 260.551, 93.609 250.500 C 93.664 234.326, 93.938 231.498, 96.309 222.628 C 99.478 210.768, 105.142 198.788, 111.683 190.107 C 114.332 186.591, 117.080 182.935, 117.788 181.983 C 118.858 180.546, 118.718 179, 116.962 172.876 C 112.502 157.324, 113.399 137.087, 119.328 119.473 L 121.676 112.500 126.857 112.197 C 133.263 111.823, 141.294 113.829, 154.174 119.022 C 166.770 124.100, 176.036 128.770, 184.917 134.515 L 191.940 139.058 199.720 137.121 C 234.533 128.456, 277.445 128.451, 312.234 137.109 L 319.967 139.034 328.234 133.840 C 337.675 127.908, 354.988 119.498, 366 115.496 C 371.578 113.468, 375.544 112.735, 381.474 112.635 L 389.447 112.500 391.161 116 C 397.627 129.206, 399.624 157.045, 395.204 172.383 C 393.319 178.926, 393.151 180.560, 394.217 181.990 C 394.922 182.938, 397.668 186.591, 400.317 190.107 C 406.956 198.917, 412.582 210.909, 415.574 222.628 C 423.310 252.932, 416.908 297.387, 400.867 324.762 C 395.652 333.662, 380.117 348.550, 369.589 354.737 C 354.174 363.796, 336.313 369.808, 315.500 372.941 C 311.650 373.521, 307.020 374.245, 305.211 374.550 L 301.923 375.105 305.996 379.733 C 311.322 385.784, 315.457 394.643, 317.419 404.208 C 318.708 410.492, 319.001 419.451, 319.006 452.708 C 319.009 476.623, 319.422 494.979, 320.004 497.074 C 322.611 506.459, 330.307 508.100, 345.500 502.511 C 359.866 497.226, 383.754 485.257, 396.328 477.044 C 441.073 447.819, 477.657 402.003, 496.575 351.505 C 503.311 333.521, 509.097 308.859, 510.599 291.722 C 510.974 287.444, 511.668 283.705, 512.140 283.413 C 512.613 283.121, 513 273.207, 513 261.382 C 513 247.303, 512.655 240.095, 512 240.500 C 511.401 240.871, 510.998 239.592, 510.994 237.309 C 510.980 228.359, 506.387 204.006, 501.788 188.500 C 489.977 148.679, 464.332 106.626, 434.396 77.990 C 395.638 40.915, 347.556 16.989, 295.500 8.876 C 283.089 6.942, 244.573 5.487, 235 6.592 M 0.426 262.500 C 0.427 274.600, 0.571 279.413, 0.747 273.195 C 0.923 266.977, 0.922 257.077, 0.746 251.195 C 0.569 245.313, 0.425 250.400, 0.426 262.500" stroke="none" fill="white" fill-rule="evenodd"/></svg>