<svg xmlns="http://www.w3.org/2000/svg" width="2560" height="1920" viewBox="0 0 2560 1920" version="1.1"><path d="M 2261.500 1.574 C 2226.507 6.940, 2193.454 18.826, 2163.712 36.736 C 2156.881 40.850, 2115.350 71.256, 2064.962 109.035 L 1978 174.234 1978 552.736 L 1978 931.237 1981.250 928.783 C 1983.037 927.433, 2114.002 829.212, 2272.282 710.516 L 2560.063 494.703 2559.744 363.601 C 2559.388 217.815, 2559.802 227.170, 2552.377 197 C 2547.713 178.049, 2542.533 163.924, 2533.455 145.394 C 2495.926 68.794, 2420.826 14.623, 2334.568 1.932 C 2318.399 -0.447, 2276.031 -0.655, 2261.500 1.574" stroke="none" fill="#fbbd00" fill-rule="evenodd"/><path d="M 2268.750 713.187 L 1978 931.249 1978 1425.624 L 1978 1920 2189.122 1920 C 2375.112 1920, 2401.492 1919.815, 2410.735 1918.442 C 2464.603 1910.444, 2511.071 1878.514, 2537.798 1831.134 C 2544.810 1818.704, 2551.885 1801.161, 2554.928 1788.663 C 2560.356 1766.362, 2560.022 1812.130, 2559.751 1127.702 L 2559.500 495.126 2268.750 713.187" stroke="none" fill="#31a952" fill-rule="evenodd"/><path d="M 0.006 1127.691 C 0.011 1685.008, 0.191 1761.693, 1.512 1770.500 C 8.992 1820.380, 36.395 1863.597, 78.049 1891.207 C 93.739 1901.607, 113.989 1910.579, 131.742 1914.996 C 152.535 1920.169, 143.849 1919.988, 370.750 1919.994 L 582 1920 582 1425.501 L 582 931.003 292.250 713.702 C 132.888 594.187, 1.938 496.059, 1.250 495.642 C 0.251 495.034, 0.001 621.704, 0.006 1127.691" stroke="none" fill="#4484f3" fill-rule="evenodd"/><path d="M 224.500 2.011 C 138.307 15.183, 63.763 69.202, 26.490 145.500 C 17.443 164.018, 12.255 178.179, 7.623 197 C 0.198 227.172, 0.611 217.822, 0.265 363.500 L -0.047 494.500 290.727 712.688 C 450.652 832.691, 738.662 1048.803, 930.750 1192.938 L 1279.999 1455.001 1629 1193.251 L 1978 931.501 1978 553.251 C 1978 345.213, 1977.774 175, 1977.498 175 C 1977.223 175, 1820.398 292.450, 1629 436 C 1437.602 579.550, 1280.553 697, 1280.003 697 C 1279.453 697, 1082.898 549.923, 843.214 370.163 C 560.377 158.039, 403.510 41.002, 396.270 36.705 C 364.587 17.898, 333.491 6.792, 297.872 1.561 C 282.363 -0.717, 240.676 -0.461, 224.500 2.011" stroke="none" fill="#e65424" fill-rule="evenodd"/></svg>