<svg xmlns="http://www.w3.org/2000/svg" width="512" height="512" viewBox="0 0 512 512" version="1.1"><path d="M 137.500 27.068 C 110 27.473, 82.873 28.117, 77.218 28.500 C 66.946 29.196, 66.930 29.201, 60.746 33.848 C 42.073 47.881, 12.274 81.609, 3.908 98.182 C 1.087 103.770, 1 104.388, 1 118.761 C 1 142.136, 4.300 151.316, 17.472 164.589 C 26.694 173.881, 34.803 178.446, 45.124 180.156 C 67.541 183.871, 93.744 166.826, 100.551 144.102 L 102.331 138.159 104.427 144.387 C 112.946 169.701, 137.678 184.720, 162.506 179.657 C 173.005 177.516, 179.868 173.990, 187.579 166.777 C 194.307 160.484, 201.198 148.790, 202.608 141.275 L 203.292 137.630 205.545 144.320 C 211.534 162.102, 226.810 175.548, 245.500 179.489 C 254.273 181.339, 257.727 181.339, 266.500 179.489 C 276.034 177.478, 284.893 172.919, 291.936 166.399 C 299.150 159.720, 303.493 153.116, 306.455 144.320 L 308.708 137.630 309.392 141.275 C 310.802 148.792, 317.693 160.484, 324.426 166.782 C 351.941 192.521, 395.305 180.841, 407.573 144.387 L 409.669 138.159 411.449 144.102 C 418.256 166.826, 444.459 183.871, 466.876 180.156 C 477.197 178.446, 485.306 173.881, 494.528 164.589 C 507.700 151.316, 511 142.136, 511 118.761 C 511 104.377, 510.915 103.775, 508.091 98.221 C 499.411 81.153, 470.272 48.139, 451.307 33.888 L 445.169 29.276 429.835 28.597 C 376.141 26.220, 242.571 25.521, 137.500 27.068 M 98.758 169.833 C 97.838 171.391, 93.803 175.778, 89.792 179.583 C 78.372 190.415, 63.838 196.387, 50.109 195.887 L 43.500 195.646 42.828 201.073 C 38.786 233.735, 38.242 367.464, 41.999 405 C 45.268 437.661, 52.259 462.258, 60.463 469.966 C 65.740 474.923, 113.123 480.743, 176 484.156 C 205.238 485.744, 306.762 485.744, 336 484.156 C 398.877 480.743, 446.260 474.923, 451.537 469.966 C 459.741 462.258, 466.732 437.661, 470.001 405 C 473.721 367.828, 473.352 248.018, 469.377 202.460 L 468.762 195.420 462.631 195.801 C 454.911 196.279, 444.638 193.929, 436.065 189.721 C 429.304 186.404, 416.376 175.137, 413.242 169.833 C 412.322 168.275, 411.328 167.001, 411.034 167.002 C 410.740 167.003, 409.232 169.010, 407.683 171.463 C 403.690 177.783, 395.419 185.007, 387.276 189.286 C 366.270 200.324, 340.815 197.589, 322.482 182.325 C 319.173 179.569, 314.898 175.006, 312.982 172.185 C 311.067 169.364, 309.219 167.156, 308.876 167.278 C 308.532 167.400, 306.057 170.408, 303.376 173.961 C 297.471 181.787, 286.351 189.684, 276.403 193.117 C 270.459 195.169, 267.624 195.500, 256 195.500 C 244.376 195.500, 241.541 195.169, 235.597 193.117 C 225.649 189.684, 214.529 181.787, 208.624 173.961 C 205.943 170.408, 203.468 167.400, 203.124 167.278 C 202.781 167.156, 200.933 169.364, 199.018 172.185 C 197.102 175.006, 192.827 179.569, 189.518 182.325 C 171.185 197.589, 145.730 200.324, 124.724 189.286 C 116.581 185.007, 108.310 177.783, 104.317 171.463 C 102.768 169.010, 101.260 167.003, 100.966 167.002 C 100.672 167.001, 99.678 168.275, 98.758 169.833 M 146.836 224.919 C 139.281 227.335, 134.758 230.212, 127.129 237.453 C 117.248 246.833, 108.899 260.106, 102.122 277.212 C 98.983 285.136, 76.358 365.662, 72.259 383.500 C 68.915 398.053, 68.656 413.372, 71.640 420 C 75.789 429.214, 83.509 433.216, 99.558 434.473 C 114.917 435.676, 132.191 432.004, 144.810 424.855 C 154.026 419.633, 163.978 408.934, 168.859 399 C 172.842 390.894, 175.945 379.834, 175.983 373.610 L 176 370.720 181.250 371.313 C 184.137 371.639, 193.025 372.690, 201 373.649 C 221.882 376.158, 290.118 376.158, 311 373.649 C 318.975 372.690, 327.863 371.639, 330.750 371.313 L 336 370.720 336.017 373.610 C 336.055 379.834, 339.158 390.894, 343.141 399 C 348.022 408.934, 357.974 419.633, 367.190 424.855 C 379.809 432.004, 397.083 435.676, 412.442 434.473 C 428.491 433.216, 436.211 429.214, 440.360 420 C 443.344 413.372, 443.085 398.053, 439.741 383.500 C 435.642 365.662, 413.017 285.136, 409.878 277.212 C 403.111 260.132, 394.775 246.870, 384.871 237.426 C 373.132 226.232, 364.840 223, 347.868 223 C 341.945 223, 334.714 223.497, 331.799 224.105 C 323.374 225.862, 314.463 230.635, 307.571 237.082 L 301.216 243.028 289.858 242.022 C 275.233 240.728, 236.767 240.728, 222.142 242.022 L 210.784 243.028 204.429 237.082 C 197.537 230.635, 188.626 225.862, 180.201 224.105 C 171.777 222.348, 153.478 222.795, 146.836 224.919 M 238.870 286.750 C 221.707 303.445, 206.748 319.699, 203.599 325.075 L 201.697 328.321 216.849 327.637 L 232 326.954 232 339.977 C 232 349.651, 232.321 353.037, 233.250 353.146 C 236.687 353.546, 276.738 353.691, 278.250 353.308 C 279.804 352.915, 280 351.413, 280 339.909 L 280 326.954 295.151 327.637 L 310.303 328.321 308.401 325.075 C 307.356 323.290, 302.635 317.480, 297.911 312.164 C 288.152 301.184, 257.421 271, 256 271 C 255.485 271, 247.776 278.087, 238.870 286.750" stroke="none" fill="#ff5c5c" fill-rule="evenodd"/></svg>