<svg xmlns="http://www.w3.org/2000/svg" width="512" height="512" viewBox="0 0 512 512" version="1.1"><path d="M 77.946 120.750 L 74.500 124.500 78.250 121.054 C 80.313 119.158, 82 117.471, 82 117.304 C 82 116.540, 81.154 117.260, 77.946 120.750" stroke="none" fill="white" fill-rule="evenodd"/><path d="M 301.637 54.465 C 296.878 56.162, 292.460 60.249, 289.805 65.413 C 288.221 68.494, 287.876 70.728, 288.186 75.913 C 288.642 83.547, 291.609 88.898, 297.662 93 L 301.350 95.500 343.375 95.792 L 385.399 96.084 306.239 175.292 C 250.780 230.784, 226.617 255.613, 225.539 258.218 C 218.316 275.666, 236.334 293.684, 253.782 286.461 C 256.387 285.383, 281.227 261.209, 336.750 205.719 L 416 126.517 416 167.298 L 416 208.080 417.912 211.790 C 420.263 216.351, 425.549 221.519, 429.315 222.939 C 433.614 224.559, 442.039 224.166, 446.509 222.135 C 451.514 219.861, 456.568 214.206, 458.009 209.267 C 458.774 206.644, 459.015 184.540, 458.804 136.500 L 458.500 67.500 455.805 63.357 C 452.793 58.726, 449.159 55.869, 444.101 54.153 C 438.734 52.333, 306.808 52.622, 301.637 54.465 M 121 97.427 C 103.808 101.249, 89.924 109.124, 77.435 122.138 C 67.210 132.793, 62.001 140.974, 57.814 152.952 C 53.059 166.555, 53.002 168.027, 53.009 277.500 C 53.013 344.493, 53.382 382.772, 54.063 387 C 58.680 415.627, 78.637 440.709, 106 452.273 C 122.252 459.141, 119.570 459.001, 234.360 458.992 C 299.658 458.988, 339.806 458.611, 343.786 457.965 C 358.804 455.528, 374.419 448.381, 386.393 438.464 C 393.780 432.347, 402.464 420.915, 407.457 410.736 C 415.767 393.797, 415.397 397.602, 415.760 325.291 L 416.083 261.082 414.133 257.291 C 405.704 240.901, 383.052 240.955, 375.402 257.383 L 373.020 262.500 372.998 320.500 C 372.975 381.250, 372.853 383.185, 368.467 392.429 C 367.464 394.542, 364.208 398.902, 361.230 402.118 C 354.809 409.053, 346.460 413.480, 337 414.965 C 328.012 416.375, 140.749 416.350, 132.040 414.937 C 114.229 412.047, 99.470 397.203, 96.926 379.620 C 96.439 376.254, 96.039 329.850, 96.037 276.500 C 96.034 171.071, 96.027 171.234, 101.583 161.025 C 105.648 153.555, 112.530 147.210, 121 143.121 L 128.500 139.500 190 139 L 251.500 138.500 255.692 136.259 C 270.957 128.100, 270.489 105.902, 254.885 97.941 L 251.080 96 188.790 96.102 C 143.710 96.177, 124.980 96.543, 121 97.427" stroke="none" fill="white" fill-rule="evenodd"/></svg>