<svg class="svg-icon" fill="white" style="width: 1em; height: 1em;vertical-align: middle;" viewBox="100 100 870 824" version="1.1" xmlns="http://www.w3.org/2000/svg"><path d="M554.666667 128l-85.333333 0 0 426.666667 85.333333 0L554.666667 128zM760.746667 220.586667l-60.586667 60.586667C767.573333 335.36 810.666667 418.56 810.666667 512c0 165.12-133.546667 298.666667-298.666667 298.666667s-298.666667-133.546667-298.666667-298.666667c0-93.44 43.093333-176.64 110.08-231.253333L263.253333 220.586667C180.48 290.986667 128 395.093333 128 512c0 212.053333 171.946667 384 384 384 212.053333 0 384-171.946667 384-384C896 395.093333 843.52 290.986667 760.746667 220.586667z"  /></svg>